<svg width="16" height="19" viewBox="0 0 16 19" fill="none" xmlns="http://www.w3.org/2000/svg">
<path fill-rule="evenodd" clip-rule="evenodd" d="M8.00002 0.75C4.76534 0.75 2.03685 3.15865 1.63564 6.36836L0.81154 12.9612C0.637496 14.3535 1.72316 15.5833 3.12635 15.5833H4.17926L4.18988 15.6072C4.85909 17.113 6.35227 18.0833 8 18.0833C9.64772 18.0833 11.1409 17.113 11.8101 15.6072L11.8207 15.5833H12.8737C14.2769 15.5833 15.3625 14.3535 15.1885 12.9612L14.3644 6.36836C13.9632 3.15866 11.2347 0.75 8.00002 0.75ZM11.3505 14.0833C11.3393 14.0831 11.3281 14.0831 11.317 14.0833H4.68297C4.67184 14.0831 4.66069 14.0831 4.64953 14.0833H3.12635C2.62541 14.0833 2.23782 13.6443 2.29996 13.1472L3.12406 6.55441C3.43144 4.09535 5.52182 2.25 8.00002 2.25C10.4782 2.25 12.5686 4.09535 12.876 6.55441L13.7001 13.1472C13.7622 13.6443 13.3746 14.0833 12.8737 14.0833H11.3505ZM5.91684 15.5833H10.0832C9.58406 16.2061 8.82207 16.5833 8 16.5833C7.17792 16.5833 6.41593 16.2061 5.91684 15.5833Z" fill="#5B5EA6"/>
</svg>
