<svg width="14" height="15" viewBox="0 0 14 15" fill="none" xmlns="http://www.w3.org/2000/svg">
<path fill-rule="evenodd" clip-rule="evenodd" d="M5.08333 0.666664C5.08333 0.252451 4.74755 -0.0833359 4.33333 -0.0833359C3.91912 -0.0833359 3.58333 0.252451 3.58333 0.666664V1.46527C1.71431 2.04835 0.343628 3.75194 0.254522 5.79281C0.24999 5.89659 0.249994 6.01493 0.25 6.20106L0.250001 6.22222V8L0.250001 8.02737C0.249997 8.93607 0.249994 9.65624 0.289801 10.2397C0.330466 10.8357 0.41517 11.3436 0.611573 11.8177C1.09367 12.9816 2.01837 13.9063 3.18225 14.3884C3.65641 14.5848 4.16431 14.6695 4.76032 14.7102C5.34374 14.75 6.0639 14.75 6.97256 14.75H6.97262H7H7.02739H7.02744C7.9361 14.75 8.65626 14.75 9.23968 14.7102C9.83569 14.6695 10.3436 14.5848 10.8177 14.3884C11.9816 13.9063 12.9063 12.9816 13.3884 11.8177C13.5848 11.3436 13.6695 10.8357 13.7102 10.2397C13.75 9.65626 13.75 8.9361 13.75 8.02744V8.02738V8V7.97261V7.97256C13.75 7.0639 13.75 6.34374 13.7102 5.76032C13.6695 5.16431 13.5848 4.65641 13.3884 4.18225C12.9063 3.01837 11.9816 2.09367 10.8177 1.61157C10.687 1.55741 10.5537 1.51175 10.4167 1.47316V0.666664C10.4167 0.252451 10.0809 -0.0833359 9.66667 -0.0833359C9.25245 -0.0833359 8.91667 0.252451 8.91667 0.666664V1.27218C8.39534 1.24999 7.7752 1.24999 7.02738 1.25H7H5.22222L5.20106 1.25H5.20106L5.08333 1.25005V0.666664ZM9.66667 3.41666C9.2889 3.41666 8.97637 3.13737 8.92429 2.77401C8.43223 2.7503 7.81941 2.75 7 2.75H5.22222L5.07875 2.75008C5.03726 3.12504 4.71935 3.41666 4.33333 3.41666C4.0512 3.41666 3.80545 3.26088 3.67741 3.03063C2.58232 3.51882 1.80829 4.59394 1.75309 5.85823C1.75018 5.92496 1.75 6.00797 1.75 6.22222V8C1.75 8.94214 1.75041 9.61119 1.78632 10.1376C1.82178 10.6572 1.88931 10.9828 1.99739 11.2437C2.32725 12.0401 2.95994 12.6728 3.75628 13.0026C4.0172 13.1107 4.34279 13.1782 4.86243 13.2137C5.38881 13.2496 6.05786 13.25 7 13.25C7.94215 13.25 8.61119 13.2496 9.13757 13.2137C9.65721 13.1782 9.9828 13.1107 10.2437 13.0026C11.0401 12.6728 11.6728 12.0401 12.0026 11.2437C12.1107 10.9828 12.1782 10.6572 12.2137 10.1376C12.2496 9.61119 12.25 8.94214 12.25 8C12.25 7.05785 12.2496 6.38881 12.2137 5.86243C12.1782 5.34279 12.1107 5.0172 12.0026 4.75628C11.6837 3.98631 11.0816 3.36933 10.3223 3.03115C10.1942 3.26111 9.94859 3.41666 9.66667 3.41666ZM3.66667 4.58333C3.25245 4.58333 2.91667 4.91912 2.91667 5.33333C2.91667 5.74754 3.25245 6.08333 3.66667 6.08333H10.3333C10.7475 6.08333 11.0833 5.74754 11.0833 5.33333C11.0833 4.91912 10.7475 4.58333 10.3333 4.58333H3.66667Z" fill="#263D36"/>
</svg>


