<svg width="24" height="24" viewBox="0 0 24 24" fill="none" xmlns="http://www.w3.org/2000/svg">
<path fill-rule="evenodd" clip-rule="evenodd" d="M3.75 12C3.75 7.44365 7.44365 3.75 12 3.75C16.5563 3.75 20.25 7.44365 20.25 12C20.25 16.5563 16.5563 20.25 12 20.25C7.44365 20.25 3.75 16.5563 3.75 12ZM12 2.25C6.61522 2.25 2.25 6.61522 2.25 12C2.25 17.3848 6.61522 21.75 12 21.75C17.3848 21.75 21.75 17.3848 21.75 12C21.75 6.61522 17.3848 2.25 12 2.25ZM16.1965 8.77854C16.3079 8.49998 16.2426 8.18182 16.0304 7.96967C15.8183 7.75752 15.5001 7.69222 15.2216 7.80364L10.2216 9.80364C10.031 9.87987 9.87998 10.0309 9.80375 10.2215L7.80375 15.2215C7.69232 15.5 7.75763 15.8182 7.96978 16.0303C8.18192 16.2425 8.50009 16.3078 8.77865 16.1964L13.7786 14.1964C13.9692 14.1201 14.1202 13.9691 14.1965 13.7785L16.1965 8.77854ZM9.8464 14.1537L11.0771 11.077L14.1538 9.84629L12.9231 12.923L9.8464 14.1537Z" fill="#5B5EA6"/>
</svg>
