<svg width="22" height="20" viewBox="0 0 22 20" fill="none" xmlns="http://www.w3.org/2000/svg">
<path fill-rule="evenodd" clip-rule="evenodd" d="M8.7019 3.35876C9.38356 2.6771 9.84258 2.22033 10.2301 1.9247C10.6002 1.64226 10.8157 1.57843 11 1.57843C11.1843 1.57843 11.3998 1.64226 11.7699 1.9247C12.1574 2.22033 12.6164 2.6771 13.2981 3.35876L15.4697 5.53033L15.7123 5.77297C16.6227 6.68334 16.9207 7.00017 17.0787 7.38161C17.2367 7.76304 17.25 8.19784 17.25 9.48528V13C17.25 14.4354 17.2484 15.4365 17.1469 16.1919C17.0482 16.9257 16.8678 17.3142 16.591 17.591C16.3142 17.8678 15.9257 18.0482 15.1919 18.1469C14.4365 18.2484 13.4354 18.25 12 18.25H10C8.56458 18.25 7.56347 18.2484 6.80812 18.1469C6.07434 18.0482 5.68577 17.8678 5.40901 17.591C5.13225 17.3142 4.9518 16.9257 4.85315 16.1919C4.75159 15.4365 4.75 14.4354 4.75 13V9.48528C4.75 8.19784 4.76328 7.76304 4.92127 7.38161C5.0788 7.00129 5.37558 6.6852 6.27968 5.78098C6.28235 5.77832 6.28502 5.77565 6.28769 5.77297L6.53033 5.53033C6.53049 5.53017 6.53065 5.53001 6.53081 5.52985L8.7019 3.35876ZM5.47015 4.46919L7.64124 2.2981L7.67801 2.26133C8.31331 1.62599 8.84307 1.09619 9.32019 0.732164C9.82379 0.347929 10.3559 0.0784302 11 0.0784302C11.6441 0.0784302 12.1762 0.347929 12.6798 0.732164C13.1569 1.09619 13.6867 1.62598 14.322 2.26132L14.3588 2.2981L16.5296 4.46897C16.5299 4.46921 16.5301 4.46944 16.5303 4.46967L16.773 4.71232L16.7745 4.71384L16.8738 4.81312C16.9389 4.87809 17.0022 4.94139 17.0639 5.00325L21.5303 9.46967C21.8232 9.76257 21.8232 10.2374 21.5303 10.5303C21.2374 10.8232 20.7626 10.8232 20.4697 10.5303L18.7488 8.80951C18.7502 8.97832 18.7501 9.15559 18.75 9.34268L18.75 9.48528V13V13.0549C18.75 14.4225 18.75 15.5248 18.6335 16.3918C18.5125 17.2919 18.2536 18.0497 17.6516 18.6517C17.0497 19.2536 16.2919 19.5125 15.3918 19.6335C14.5248 19.75 13.4225 19.75 12.0549 19.75H12H10H9.94513C8.57754 19.75 7.47522 19.75 6.60825 19.6335C5.70814 19.5125 4.95027 19.2536 4.34835 18.6517C3.74643 18.0497 3.48754 17.2919 3.36652 16.3918C3.24996 15.5248 3.24998 14.4225 3.25 13.0549L3.25 13V9.48528L3.24995 9.34268C3.24987 9.15559 3.24978 8.97832 3.25116 8.8095L1.53033 10.5303C1.23744 10.8232 0.762563 10.8232 0.46967 10.5303C0.176777 10.2374 0.176777 9.76257 0.46967 9.46967L4.93593 5.00342C4.99765 4.9415 5.06107 4.87815 5.12616 4.81312L5.12616 4.81312L5.22625 4.71309L5.22703 4.71231L5.46967 4.46967C5.46983 4.46951 5.46999 4.46935 5.47015 4.46919Z" fill="#5B5EA6"/>
</svg>
