<svg width="22" height="26" viewBox="0 0 22 26" fill="none" xmlns="http://www.w3.org/2000/svg">
<path d="M19.6065 11.901L7.23351 3.25927C7.12929 3.18648 7.00999 3.14673 6.88787 3.14412C6.76576 3.14151 6.64524 3.17612 6.53871 3.2444C6.43218 3.31267 6.34349 3.41215 6.28176 3.5326C6.22004 3.65305 6.1875 3.79011 6.1875 3.9297V21.2132C6.1875 21.3528 6.22004 21.4898 6.28176 21.6103C6.34349 21.7307 6.43218 21.8302 6.53871 21.8985C6.64524 21.9668 6.76576 22.0014 6.88787 21.9988C7.00999 21.9961 7.12929 21.9564 7.23351 21.8836L19.6065 13.2419C19.707 13.1717 19.79 13.0732 19.8476 12.9558C19.9052 12.8384 19.9355 12.706 19.9355 12.5714C19.9355 12.4368 19.9052 12.3045 19.8476 12.1871C19.79 12.0697 19.707 11.9712 19.6065 11.901Z" fill="white"/>
<path d="M19.6065 11.901L7.23351 3.25927C7.12929 3.18648 7.00999 3.14673 6.88787 3.14412C6.76576 3.14151 6.64524 3.17612 6.53871 3.2444C6.43218 3.31267 6.34349 3.41215 6.28176 3.5326C6.22004 3.65305 6.1875 3.79011 6.1875 3.9297V21.2132C6.1875 21.3528 6.22004 21.4898 6.28176 21.6103C6.34349 21.7307 6.43218 21.8302 6.53871 21.8985C6.64524 21.9668 6.76576 22.0014 6.88787 21.9988C7.00999 21.9961 7.12929 21.9564 7.23351 21.8836L19.6065 13.2419C19.707 13.1717 19.79 13.0732 19.8476 12.9558C19.9052 12.8384 19.9355 12.706 19.9355 12.5714C19.9355 12.4368 19.9052 12.3045 19.8476 12.1871C19.79 12.0697 19.707 11.9712 19.6065 11.901Z" stroke="white" stroke-width="2" stroke-linecap="round" stroke-linejoin="round"/>
</svg>
