<svg width="16" height="21" viewBox="0 0 16 21" fill="none" xmlns="http://www.w3.org/2000/svg">
<path d="M14.6065 9.90101L2.23351 1.25927C2.12929 1.18648 2.00999 1.14673 1.88787 1.14412C1.76576 1.14151 1.64524 1.17612 1.53871 1.2444C1.43218 1.31267 1.34349 1.41215 1.28176 1.5326C1.22004 1.65305 1.1875 1.79011 1.1875 1.9297V19.2132C1.1875 19.3528 1.22004 19.4898 1.28176 19.6103C1.34349 19.7307 1.43218 19.8302 1.53871 19.8985C1.64524 19.9668 1.76576 20.0014 1.88787 19.9988C2.00999 19.9961 2.12929 19.9564 2.23351 19.8836L14.6065 11.2419C14.707 11.1717 14.79 11.0732 14.8476 10.9558C14.9052 10.8384 14.9355 10.706 14.9355 10.5714C14.9355 10.4368 14.9052 10.3045 14.8476 10.1871C14.79 10.0697 14.707 9.9712 14.6065 9.90101Z" stroke="white" stroke-width="2" stroke-linecap="round" stroke-linejoin="round"/>
</svg>
