<svg width="20" height="20" viewBox="0 0 20 20" fill="none" xmlns="http://www.w3.org/2000/svg">
<path fill-rule="evenodd" clip-rule="evenodd" d="M17.0945 1.81654C16.6115 1.75159 15.964 1.75 14.9999 1.75H9.99994C9.52374 1.75 9.20415 1.75041 8.95668 1.76729C8.71596 1.78372 8.59874 1.81319 8.52159 1.84515C8.2153 1.97202 7.97196 2.21536 7.84509 2.52165C7.81313 2.5988 7.78366 2.71602 7.76723 2.95674C7.76126 3.04424 7.75735 3.14074 7.75479 3.25H11.9999L12.0519 3.25C12.9504 3.24997 13.6996 3.24995 14.2944 3.32991C14.9222 3.41432 15.489 3.59999 15.9445 4.05546C16.4 4.51093 16.5856 5.07773 16.67 5.70552C16.75 6.30027 16.75 7.04943 16.7499 7.94784V7.94786V7.94801L16.7499 8V12.2452C16.8592 12.2426 16.9557 12.2387 17.0432 12.2327C17.2839 12.2163 17.4011 12.1868 17.4783 12.1549C17.7846 12.028 18.0279 11.7846 18.1548 11.4784C18.1867 11.4012 18.2162 11.284 18.2327 11.0433C18.2495 10.7958 18.2499 10.4762 18.2499 10V5C18.2499 4.03599 18.2483 3.38843 18.1834 2.90539C18.1214 2.44393 18.0141 2.24643 17.8838 2.11612C17.7535 1.9858 17.556 1.87858 17.0945 1.81654ZM6.27071 2.85464C6.26236 2.97703 6.25736 3.11015 6.25438 3.25444C6.11008 3.25743 5.97697 3.26242 5.85458 3.27077C5.53748 3.29241 5.23795 3.33905 4.94756 3.45933C4.27373 3.73844 3.73838 4.2738 3.45927 4.94762C3.33899 5.23801 3.29235 5.53754 3.27071 5.85464C3.26189 5.98396 3.25681 6.12525 3.25389 6.27905C3.05852 6.2907 2.87567 6.30703 2.70546 6.32992C2.07767 6.41432 1.51087 6.59999 1.0554 7.05546C0.599929 7.51093 0.414258 8.07773 0.329853 8.70553C0.249888 9.3003 0.249912 10.0495 0.24994 10.948V10.948L0.249942 11V15L0.24994 15.052V15.052C0.249912 15.9505 0.249888 16.6997 0.329853 17.2945C0.414258 17.9223 0.599929 18.4891 1.0554 18.9445C1.51087 19.4 2.07767 19.5857 2.70546 19.6701C3.30024 19.7501 4.04945 19.75 4.94792 19.75H4.94795L4.99994 19.75H8.99994L9.05194 19.75H9.05197C9.95044 19.75 10.6996 19.7501 11.2944 19.6701C11.9222 19.5857 12.489 19.4 12.9445 18.9445C13.4 18.4891 13.5856 17.9223 13.67 17.2945C13.6929 17.1243 13.7092 16.9414 13.7209 16.7461C13.8747 16.7431 14.016 16.7381 14.1453 16.7292C14.4624 16.7076 14.7619 16.661 15.0523 16.5407C15.7261 16.2616 16.2615 15.7262 16.5406 15.0524C16.6609 14.762 16.7075 14.4625 16.7292 14.1454C16.7375 14.023 16.7425 13.8899 16.7455 13.7456C16.8898 13.7426 17.0229 13.7376 17.1453 13.7292C17.4624 13.7076 17.7619 13.661 18.0523 13.5407C18.7261 13.2616 19.2615 12.7262 19.5406 12.0524C19.6609 11.762 19.7075 11.4625 19.7292 11.1454C19.75 10.8408 19.7499 10.4697 19.7499 10.0253V10V5L19.7499 4.94801V4.94798V4.94794C19.75 4.04949 19.75 3.30029 19.67 2.70552C19.5856 2.07773 19.4 1.51093 18.9445 1.05546C18.489 0.599988 17.9222 0.414318 17.2944 0.329913C16.6996 0.249947 15.9504 0.249971 15.0519 0.250001H14.9999H9.99994H9.97469H9.97468C9.53022 0.249994 9.15919 0.249988 8.85458 0.270771C8.53748 0.292407 8.23795 0.33905 7.94756 0.459333C7.27373 0.738441 6.73838 1.2738 6.45927 1.94762C6.33899 2.23801 6.29235 2.53754 6.27071 2.85464ZM13.7499 15.2452C13.8592 15.2426 13.9557 15.2387 14.0432 15.2327C14.2839 15.2163 14.4011 15.1868 14.4783 15.1549C14.7846 15.028 15.0279 14.7846 15.1548 14.4784C15.1867 14.4012 15.2162 14.284 15.2327 14.0433C15.2495 13.7958 15.2499 13.4762 15.2499 13V8C15.2499 7.03599 15.2483 6.38843 15.1834 5.90539C15.1214 5.44393 15.0141 5.24644 14.8838 5.11612C14.7535 4.9858 14.556 4.87858 14.0945 4.81654C13.6115 4.7516 12.964 4.75 11.9999 4.75H6.99994C6.52374 4.75 6.20415 4.75041 5.95668 4.76729C5.71596 4.78372 5.59874 4.8132 5.52159 4.84515C5.2153 4.97202 4.97196 5.21536 4.84509 5.52165C4.81313 5.5988 4.78366 5.71602 4.76723 5.95674C4.76126 6.04424 4.75735 6.14076 4.75479 6.25003C4.81839 6.25 4.88277 6.25 4.94794 6.25L4.99994 6.25H8.99994L9.05194 6.25C9.95042 6.24997 10.6996 6.24995 11.2944 6.32992C11.9222 6.41432 12.489 6.59999 12.9445 7.05546C13.4 7.51093 13.5856 8.07773 13.67 8.70553C13.75 9.3003 13.75 10.0495 13.7499 10.948V10.948L13.7499 11V15L13.7499 15.052V15.052C13.7499 15.1172 13.7499 15.1816 13.7499 15.2452ZM2.11606 8.11612C2.24638 7.9858 2.44387 7.87858 2.90533 7.81654C3.38837 7.7516 4.03593 7.75 4.99994 7.75H8.99994C9.96395 7.75 10.6115 7.7516 11.0946 7.81654C11.556 7.87858 11.7535 7.9858 11.8838 8.11612C12.0141 8.24644 12.1214 8.44393 12.1834 8.9054C12.2483 9.38843 12.2499 10.036 12.2499 11V15C12.2499 15.964 12.2483 16.6116 12.1834 17.0946C12.1214 17.5561 12.0141 17.7536 11.8838 17.8839C11.7535 18.0142 11.556 18.1214 11.0946 18.1835C10.6115 18.2484 9.96395 18.25 8.99994 18.25H4.99994C4.03593 18.25 3.38837 18.2484 2.90533 18.1835C2.44387 18.1214 2.24638 18.0142 2.11606 17.8839C1.98574 17.7536 1.87852 17.5561 1.81648 17.0946C1.75154 16.6116 1.74994 15.964 1.74994 15V11C1.74994 10.036 1.75154 9.38843 1.81648 8.9054C1.87852 8.44393 1.98574 8.24644 2.11606 8.11612Z" fill="#5B5EA6"/>
</svg>
