<svg width="24" height="24" viewBox="0 0 24 24" fill="none" xmlns="http://www.w3.org/2000/svg">
<path fill-rule="evenodd" clip-rule="evenodd" d="M11 2.25H10.9436C9.10582 2.24998 7.65019 2.24997 6.51098 2.40313C5.33856 2.56076 4.38961 2.89288 3.64124 3.64124C2.89288 4.38961 2.56076 5.33856 2.40313 6.51098C2.24997 7.65019 2.24998 9.10582 2.25 10.9436V11V13V13.0564C2.24998 14.8942 2.24997 16.3498 2.40313 17.489C2.56076 18.6614 2.89288 19.6104 3.64124 20.3588C4.38961 21.1071 5.33856 21.4392 6.51098 21.5969C7.65018 21.75 9.1058 21.75 10.9435 21.75H10.9436H11H13H13.0564H13.0565C14.8942 21.75 16.3498 21.75 17.489 21.5969C18.6614 21.4392 19.6104 21.1071 20.3588 20.3588C21.1071 19.6104 21.4392 18.6614 21.5969 17.489C21.75 16.3498 21.75 14.8942 21.75 13.0565V13.0564V13V12C21.75 11.5858 21.4142 11.25 21 11.25C20.5858 11.25 20.25 11.5858 20.25 12V13C20.25 14.9068 20.2484 16.2615 20.1102 17.2892C19.975 18.2952 19.7213 18.8749 19.2981 19.2981C18.8749 19.7213 18.2952 19.975 17.2892 20.1102C16.2615 20.2484 14.9068 20.25 13 20.25H11C9.09318 20.25 7.73851 20.2484 6.71085 20.1102C5.70476 19.975 5.12511 19.7213 4.7019 19.2981C4.27869 18.8749 4.02502 18.2952 3.88976 17.2892C3.75159 16.2615 3.75 14.9068 3.75 13V11C3.75 9.09318 3.75159 7.73851 3.88976 6.71085C4.02502 5.70476 4.27869 5.12511 4.7019 4.7019C5.12511 4.27869 5.70476 4.02502 6.71085 3.88976C7.73851 3.75159 9.09318 3.75 11 3.75H12C12.4142 3.75 12.75 3.41421 12.75 3C12.75 2.58579 12.4142 2.25 12 2.25H11ZM15.75 6C15.75 4.75736 16.7574 3.75 18 3.75C19.2426 3.75 20.25 4.75736 20.25 6C20.25 7.24264 19.2426 8.25 18 8.25C16.7574 8.25 15.75 7.24264 15.75 6ZM18 2.25C15.9289 2.25 14.25 3.92893 14.25 6C14.25 8.07107 15.9289 9.75 18 9.75C20.0711 9.75 21.75 8.07107 21.75 6C21.75 3.92893 20.0711 2.25 18 2.25Z" fill="#5B5EA6"/>
</svg>
